# xmcd CD database file
#
# Track frame offsets:
#	150
#	22287
#	42632
#	72110
#	94247
#	114592
#
# Disc length: 1917 seconds
#
# Revision: 2
# Processed by: cddbd v1.4PL0 Copyright (c) Steve Scherf et al.
# Submitted via: CDex 1.51
#
DISCID=54077b06
DTITLE=hiro - Treasure
DYEAR=1900
DGENRE=J-POP
TTITLE0=Treasure
TTITLE1=Secret Promise
TTITLE2=Early Passed Time To Winter
TTITLE3=Treasure (instrumental)
TTITLE4=Secret Promise (instrumental)
TTITLE5=Early Passed Time To Winter (instrumental)
EXTD=
EXTT0=
EXTT1=
EXTT2=
EXTT3=
EXTT4=
EXTT5=
PLAYORDER=
